<?xml version="1.0" standalone="no"?>
<!DOCTYPE svg PUBLIC "-//W3C//DTD SVG 20010904//EN"
 "http://www.w3.org/TR/2001/REC-SVG-20010904/DTD/svg10.dtd">
<svg version="1.0" xmlns="http://www.w3.org/2000/svg"
 width="700.000000pt" height="700.000000pt" viewBox="0 0 700.000000 700.000000"
 preserveAspectRatio="xMidYMid meet">
<metadata>
Created by potrace 1.14, written by Peter Selinger 2001-2017
</metadata>
<g transform="translate(0.000000,700.000000) scale(0.100000,-0.100000)"
fill="#000000" stroke="none">
<path d="M1465 6988 c-64 -38 -65 -43 -65 -392 l0 -316 -40 -20 c-207 -106
-256 -372 -100 -543 72 -79 149 -112 260 -111 71 0 94 4 140 26 134 65 211
191 204 335 -6 120 -82 238 -186 291 l-45 22 -1 282 c0 156 -1 301 -1 323 -1
60 -42 104 -101 110 -27 3 -53 1 -65 -7z m111 -939 c70 -37 70 -161 0 -198
-75 -41 -162 3 -172 86 -11 93 87 157 172 112z"/>
<path d="M2629 6985 c-14 -8 -34 -27 -44 -42 -17 -25 -19 -56 -19 -347 -1
-275 -3 -320 -16 -324 -38 -12 -119 -75 -146 -114 -103 -146 -90 -329 32 -452
140 -142 371 -137 505 11 65 71 84 125 84 233 0 79 -4 103 -23 143 -31 65 -86
123 -149 159 l-53 30 0 310 c0 269 -2 315 -17 345 -26 56 -99 78 -154 48z
m107 -933 c34 -18 54 -48 59 -88 17 -130 -165 -180 -217 -59 -42 98 64 197
158 147z"/>
<path d="M3800 6988 c-13 -7 -34 -27 -46 -45 -20 -30 -21 -41 -20 -346 l1
-315 -40 -20 c-68 -34 -122 -89 -157 -160 -30 -60 -33 -76 -33 -152 0 -76 4
-93 33 -152 38 -77 92 -130 171 -167 47 -22 70 -26 141 -26 70 0 95 5 141 27
79 36 133 89 171 166 30 60 33 76 33 152 0 70 -5 95 -26 140 -31 65 -98 137
-154 165 -22 11 -42 21 -44 22 -2 2 -4 149 -5 328 l-1 325 -31 31 c-36 35 -95
47 -134 27z m87 -927 c16 -1 73 -57 74 -73 0 -7 2 -22 4 -32 6 -32 -22 -84
-55 -105 -79 -48 -181 14 -174 106 4 62 65 118 119 108 11 -2 25 -4 32 -4z"/>
<path d="M4956 6981 c-55 -36 -55 -40 -56 -383 l0 -318 -40 -20 c-205 -104
-255 -371 -103 -540 138 -154 375 -157 517 -6 16 17 43 60 59 95 26 54 31 77
31 141 0 64 -5 86 -31 141 -34 72 -98 141 -159 169 l-41 19 0 319 c0 355 -1
360 -70 388 -44 19 -73 17 -107 -5z m120 -932 c45 -23 67 -99 43 -151 -27 -59
-107 -81 -161 -44 -43 29 -60 62 -54 109 10 83 93 124 172 86z"/>
<path d="M770 6528 c-36 -3 -87 -14 -115 -23 -51 -17 -150 -68 -170 -89 -7 -6
-24 -20 -39 -31 -44 -32 -122 -135 -155 -205 -62 -131 -58 76 -56 -2924 1
-1513 5 -2764 9 -2779 54 -220 243 -411 458 -462 54 -13 281 -15 1618 -15
1525 0 1556 0 1587 20 80 49 75 166 -9 201 -24 10 -348 13 -1587 13 l-1556 1
-56 26 c-68 32 -132 88 -171 148 -15 25 -28 48 -28 51 0 4 757 6 1683 6 1320
0 1690 3 1713 12 33 14 63 58 70 101 5 32 -30 90 -66 108 -20 10 -386 13
-1730 13 l-1705 0 0 115 c0 63 2 115 5 116 3 0 773 1 1712 2 l1707 2 28 21
c15 11 34 39 42 61 13 36 12 43 -5 79 -37 77 116 71 -1783 70 -1694 -1 -1701
-1 -1702 19 -6 119 -2 4764 4 4804 16 107 103 221 214 277 56 28 63 29 223 32
99 2 175 8 189 15 31 15 59 54 65 91 7 40 -26 100 -63 116 -34 14 -229 19
-331 8z"/>
<path d="M1971 6529 c-113 -15 -141 -162 -41 -214 45 -23 293 -21 340 3 58 29
80 105 46 158 -33 48 -58 57 -184 58 -64 1 -137 -2 -161 -5z"/>
<path d="M3110 6523 c-19 -7 -36 -13 -36 -13 -1 0 -10 -12 -19 -27 -27 -40
-27 -87 -2 -125 35 -52 57 -58 210 -58 159 0 196 11 221 65 20 41 20 68 2 104
-29 55 -56 63 -205 65 -85 1 -148 -4 -171 -11z"/>
<path d="M4297 6529 c-42 -7 -63 -22 -83 -60 -18 -36 -18 -63 2 -104 25 -54
62 -65 221 -65 90 0 146 5 162 13 86 44 85 171 -1 208 -29 12 -241 18 -301 8z"/>
<path d="M5471 6529 c-116 -15 -141 -175 -34 -217 15 -6 100 -12 188 -14 150
-3 164 -5 218 -30 73 -35 155 -116 192 -193 l30 -60 1 -1560 c0 -1218 3 -1565
13 -1583 17 -31 70 -62 106 -62 39 1 72 20 96 56 18 28 19 64 19 1584 0 1365
-2 1563 -15 1615 -55 214 -225 389 -438 450 -61 18 -287 26 -376 14z"/>
<path d="M1468 4889 c-33 -13 -68 -66 -68 -105 0 -35 31 -89 61 -104 32 -17
296 -18 337 -1 63 26 87 106 49 162 -12 19 -34 39 -47 46 -30 15 -291 16 -332
2z"/>
<path d="M2400 4887 c-86 -43 -84 -172 2 -208 25 -10 267 -13 1217 -13 1095 0
1188 2 1218 17 81 43 81 162 0 200 -32 16 -133 17 -1224 17 -930 0 -1193 -3
-1213 -13z"/>
<path d="M1456 4181 c-74 -49 -73 -148 1 -196 23 -15 49 -18 169 -18 90 -1
151 4 170 12 64 27 89 106 51 162 -36 53 -56 59 -217 59 -127 0 -149 -3 -174
-19z"/>
<path d="M2401 4187 c-57 -29 -83 -108 -52 -160 36 -64 -30 -60 1147 -61 855
0 1077 3 1102 13 86 36 88 165 2 208 -36 18 -2164 18 -2199 0z"/>
<path d="M1453 3478 c-70 -50 -68 -146 4 -193 39 -26 301 -27 349 -2 66 34 77
126 23 182 l-29 30 -158 3 c-150 3 -158 2 -189 -20z"/>
<path d="M2405 3490 c-58 -24 -86 -99 -58 -158 33 -70 -62 -65 1358 -66 704
-1 1300 2 1324 5 113 16 140 163 40 215 -24 12 -213 14 -1336 13 -719 0 -1317
-4 -1328 -9z"/>
<path d="M1453 2779 c-37 -24 -60 -81 -49 -125 10 -39 62 -84 100 -85 132 -5
270 0 293 10 63 27 87 107 50 162 -36 53 -56 59 -217 59 -130 0 -148 -3 -177
-21z"/>
<path d="M2405 2790 c-59 -24 -87 -97 -59 -155 34 -73 -54 -68 1249 -69 644
-1 1188 2 1210 7 104 20 126 156 35 210 -26 16 -121 17 -1222 16 -656 0 -1202
-4 -1213 -9z"/>
<path d="M5950 2541 c-30 -10 -71 -26 -90 -36 -40 -20 -1624 -1596 -1646
-1637 -20 -39 -21 -752 0 -802 27 -64 40 -66 456 -66 303 0 376 3 398 14 45
24 1607 1596 1635 1646 79 138 82 271 11 419 -21 42 -69 98 -200 229 -154 154
-181 176 -249 209 -67 31 -87 36 -168 40 -71 2 -104 -1 -147 -16z m205 -227
c49 -20 340 -309 360 -358 21 -49 19 -112 -5 -160 -11 -23 -60 -81 -109 -130
l-90 -89 -267 267 -268 267 90 90 c49 49 107 98 129 109 48 24 109 26 160 4z
m-451 -460 c47 -47 86 -88 86 -92 0 -4 -226 -233 -503 -510 l-503 -503 -93 92
-92 93 503 503 c277 277 506 503 510 503 3 0 45 -38 92 -86z m350 -350 c47
-47 86 -89 86 -92 0 -4 -226 -233 -503 -510 l-503 -503 -92 93 -93 92 503 503
c277 277 506 503 509 503 4 0 45 -39 93 -86z m-1353 -1003 c143 -143 256 -261
252 -264 -4 -2 -123 -4 -263 -3 l-255 1 -1 263 c-1 144 1 262 3 262 3 0 122
-117 264 -259z"/>
<path d="M1462 2085 c-53 -23 -76 -98 -48 -154 30 -56 56 -64 212 -64 89 0
152 4 170 12 64 27 88 107 50 163 -12 18 -33 38 -46 45 -36 18 -295 17 -338
-2z"/>
<path d="M2401 2087 c-86 -44 -86 -168 -1 -206 32 -14 129 -16 875 -15 797 0
841 1 868 19 31 20 57 63 57 95 0 41 -32 92 -66 106 -46 19 -1696 21 -1733 1z"/>
</g>
</svg>
